<?xml version="1.0" encoding="UTF-8" standalone="no"?>
<svg width="23px" height="22px" viewBox="0 0 23 22" version="1.1" xmlns="http://www.w3.org/2000/svg" xmlns:xlink="http://www.w3.org/1999/xlink" xmlns:sketch="http://www.bohemiancoding.com/sketch/ns">
    <title>v10 3</title>
    <description>Created with Sketch (http://www.bohemiancoding.com/sketch)</description>
    <defs></defs>
    <g id="Page-1" stroke="none" stroke-width="1" fill="none" fill-rule="evenodd" sketch:type="MSPage">
        <g id="Artboard-3" sketch:type="MSArtboardGroup" transform="translate(-691.000000, -58.000000)" fill="#E39B7D">
            <path d="M713.179,75.607 C713.179,76.083 713.012333,76.4876667 712.679,76.821 L710.25,79.25 C709.916667,79.5833333 709.512,79.75 709.036,79.75 C708.56,79.75 708.155333,79.5833333 707.822,79.25 L702.572,74 L697.322,79.25 C696.988667,79.5833333 696.584,79.75 696.108,79.75 C695.632,79.75 695.227333,79.5833333 694.894,79.25 L692.465,76.821 C692.131667,76.4876667 691.965,76.083 691.965,75.607 C691.965,75.131 692.131667,74.7263333 692.465,74.393 L697.715,69.143 L692.465,63.893 C692.131667,63.5596667 691.965,63.155 691.965,62.679 C691.965,62.203 692.131667,61.7983333 692.465,61.465 L694.894,59.036 C695.227333,58.7026667 695.632,58.536 696.108,58.536 C696.584,58.536 696.988667,58.7026667 697.322,59.036 L702.572,64.286 L707.822,59.036 C708.155333,58.7026667 708.56,58.536 709.036,58.536 C709.512,58.536 709.916667,58.7026667 710.25,59.036 L712.679,61.465 C713.012333,61.7983333 713.179,62.203 713.179,62.679 C713.179,63.155 713.012333,63.5596667 712.679,63.893 L707.429,69.143 L712.679,74.393 C713.012333,74.7263333 713.179,75.131 713.179,75.607 L713.179,75.607 Z" id="Shape" sketch:type="MSShapeGroup"></path>
        </g>
    </g>
</svg>